<svg width="16" height="17" viewBox="0 0 16 17" fill="none" xmlns="http://www.w3.org/2000/svg">
<path d="M1.32657 6.27529H14.6737M6.51617 9.98283H9.4822M13.1907 1.82642H2.80959C2.41627 1.82642 2.03905 1.98266 1.76093 2.26078C1.48281 2.5389 1.32657 2.91611 1.32657 3.30943V13.6906C1.32657 14.0839 1.48281 14.4611 1.76093 14.7392C2.03905 15.0173 2.41627 15.1736 2.80959 15.1736H13.1907C13.584 15.1736 13.9612 15.0173 14.2394 14.7392C14.5175 14.4611 14.6737 14.0839 14.6737 13.6906V3.30943C14.6737 2.91611 14.5175 2.5389 14.2394 2.26078C13.9612 1.98266 13.584 1.82642 13.1907 1.82642Z" stroke="#666F8D" stroke-width="1.3" stroke-linecap="round" stroke-linejoin="round"/>
</svg>
