<svg width="14" height="14" viewBox="0 0 14 14" fill="none" xmlns="http://www.w3.org/2000/svg">
<path d="M7.0001 2.06081C6.81297 2.06081 6.6335 1.98647 6.50118 1.85415C6.36886 1.72183 6.29453 1.54237 6.29453 1.35523C6.29453 1.1681 6.36886 0.988638 6.50118 0.856317C6.6335 0.723995 6.81297 0.649658 7.0001 0.649658" stroke="#666F8D" stroke-width="1.3" stroke-linecap="round" stroke-linejoin="round"/>
<path d="M7.00043 2.06057C7.18756 2.06057 7.36702 1.98623 7.49934 1.85391C7.63167 1.72159 7.706 1.54212 7.706 1.35499C7.706 1.16786 7.63167 0.988394 7.49934 0.856073C7.36702 0.723751 7.18756 0.649414 7.00043 0.649414" stroke="#666F8D" stroke-width="1.3" stroke-linecap="round" stroke-linejoin="round"/>
<path d="M7.00019 13.3499C6.81306 13.3499 6.6336 13.2755 6.50128 13.1432C6.36895 13.0109 6.29462 12.8314 6.29462 12.6443C6.29462 12.4572 6.36895 12.2777 6.50128 12.1454C6.6336 12.0131 6.81306 11.9387 7.00019 11.9387" stroke="#666F8D" stroke-width="1.3" stroke-linecap="round" stroke-linejoin="round"/>
<path d="M7.00043 13.3499C7.18756 13.3499 7.36702 13.2755 7.49934 13.1432C7.63167 13.0109 7.706 12.8314 7.706 12.6443C7.706 12.4572 7.63167 12.2777 7.49934 12.1454C7.36702 12.0131 7.18756 11.9387 7.00043 11.9387" stroke="#666F8D" stroke-width="1.3" stroke-linecap="round" stroke-linejoin="round"/>
<path d="M7.00019 7.7051C6.81306 7.7051 6.6336 7.63076 6.50128 7.49844C6.36895 7.36612 6.29462 7.18665 6.29462 6.99952C6.29462 6.81239 6.36895 6.63293 6.50128 6.5006C6.6336 6.36828 6.81306 6.29395 7.00019 6.29395" stroke="#666F8D" stroke-width="1.3" stroke-linecap="round" stroke-linejoin="round"/>
<path d="M7.00043 7.7051C7.18756 7.7051 7.36702 7.63076 7.49934 7.49844C7.63167 7.36612 7.706 7.18665 7.706 6.99952C7.706 6.81239 7.63167 6.63293 7.49934 6.5006C7.36702 6.36828 7.18756 6.29395 7.00043 6.29395" stroke="#666F8D" stroke-width="1.3" stroke-linecap="round" stroke-linejoin="round"/>
</svg>
