<svg width="16" height="16" viewBox="0 0 16 16" fill="none" xmlns="http://www.w3.org/2000/svg">
<path d="M3.7221 6.58531C4.47927 6.58531 5.20542 6.28452 5.74082 5.74912C6.27622 5.21373 6.57701 4.48757 6.57701 3.7304C6.57701 2.97323 6.27622 2.24707 5.74082 1.71167C5.20542 1.17627 4.47927 0.875488 3.7221 0.875488C2.96493 0.875488 2.23877 1.17627 1.70337 1.71167C1.16797 2.24707 0.867188 2.97323 0.867188 3.7304C0.867188 4.48757 1.16797 5.21373 1.70337 5.74912C2.23877 6.28452 2.96493 6.58531 3.7221 6.58531Z" stroke="#666F8D" stroke-width="1.3" stroke-linecap="round" stroke-linejoin="round"/>
<path d="M12.2771 6.58533C13.0343 6.58533 13.7604 6.28454 14.2958 5.74914C14.8312 5.21375 15.132 4.48759 15.132 3.73042C15.132 2.97325 14.8312 2.24709 14.2958 1.71169C13.7604 1.17629 13.0343 0.875509 12.2771 0.875509C11.5199 0.875509 10.7938 1.17629 10.2584 1.71169C9.72296 2.24709 9.42217 2.97325 9.42217 3.73042C9.42217 4.48759 9.72296 5.21375 10.2584 5.74914C10.7938 6.28454 11.5199 6.58533 12.2771 6.58533Z" stroke="#666F8D" stroke-width="1.3" stroke-linecap="round" stroke-linejoin="round"/>
<path d="M3.7221 15.1245C4.09701 15.1245 4.46825 15.0507 4.81462 14.9072C5.161 14.7637 5.47572 14.5534 5.74082 14.2883C6.00593 14.0232 6.21622 13.7085 6.35969 13.3621C6.50316 13.0158 6.57701 12.6445 6.57701 12.2696C6.57701 11.8947 6.50316 11.5235 6.35969 11.1771C6.21622 10.8307 6.00593 10.516 5.74082 10.2509C5.47572 9.98578 5.161 9.77549 4.81462 9.63202C4.46825 9.48854 4.09701 9.4147 3.7221 9.4147C2.96493 9.4147 2.23877 9.71548 1.70337 10.2509C1.16797 10.7863 0.867188 11.5124 0.867188 12.2696C0.867188 13.0268 1.16797 13.7529 1.70337 14.2883C2.23877 14.8237 2.96493 15.1245 3.7221 15.1245Z" stroke="#666F8D" stroke-width="1.3" stroke-linecap="round" stroke-linejoin="round"/>
<path d="M12.2771 15.1245C12.652 15.1245 13.0232 15.0507 13.3696 14.9072C13.716 14.7637 14.0307 14.5534 14.2958 14.2883C14.5609 14.0232 14.7712 13.7085 14.9147 13.3621C15.0581 13.0158 15.132 12.6445 15.132 12.2696C15.132 11.8947 15.0581 11.5235 14.9147 11.1771C14.7712 10.8307 14.5609 10.516 14.2958 10.2509C14.0307 9.98578 13.716 9.77549 13.3696 9.63202C13.0232 9.48854 12.652 9.4147 12.2771 9.4147C11.5199 9.4147 10.7938 9.71548 10.2584 10.2509C9.72296 10.7863 9.42217 11.5124 9.42217 12.2696C9.42217 13.0268 9.72296 13.7529 10.2584 14.2883C10.7938 14.8237 11.5199 15.1245 12.2771 15.1245Z" stroke="#666F8D" stroke-width="1.3" stroke-linecap="round" stroke-linejoin="round"/>
</svg>
