<svg width="16" height="17" viewBox="0 0 16 17" fill="none" xmlns="http://www.w3.org/2000/svg">
<path d="M8.00537 8.70341C8.03185 8.7032 8.05804 8.69778 8.08243 8.68745C8.10681 8.67712 8.12893 8.66209 8.14751 8.64322C8.16608 8.62434 8.18076 8.60199 8.1907 8.57744C8.20064 8.55289 8.20565 8.52663 8.20544 8.50014C8.20565 8.47366 8.20064 8.44739 8.1907 8.42285C8.18076 8.3983 8.16608 8.37595 8.14751 8.35707C8.12893 8.3382 8.10681 8.32317 8.08243 8.31284C8.05804 8.30251 8.03185 8.29708 8.00537 8.29688" stroke="#666F8D" stroke-width="1.4" stroke-linecap="round" stroke-linejoin="round"/>
<path d="M4.55566 8.69701C4.58173 8.6968 4.60749 8.69146 4.63149 8.68129C4.65549 8.67112 4.67725 8.65633 4.69553 8.63775C4.71382 8.61917 4.72826 8.59718 4.73804 8.57302C4.74782 8.54886 4.75274 8.52301 4.75253 8.49694C4.75274 8.47088 4.74782 8.44503 4.73804 8.42087C4.72826 8.39671 4.71382 8.37471 4.69553 8.35613C4.67725 8.33756 4.65549 8.32276 4.63149 8.31259C4.60749 8.30243 4.58173 8.29708 4.55566 8.29688" stroke="#666F8D" stroke-width="1.4" stroke-linecap="round" stroke-linejoin="round"/>
<path d="M11.4492 8.69701C11.4753 8.6968 11.501 8.69146 11.525 8.68129C11.549 8.67112 11.5708 8.65633 11.5891 8.63775C11.6074 8.61917 11.6218 8.59718 11.6316 8.57302C11.6414 8.54886 11.6463 8.52301 11.6461 8.49694C11.6463 8.47088 11.6414 8.44503 11.6316 8.42087C11.6218 8.39671 11.6074 8.37471 11.5891 8.35613C11.5708 8.33756 11.549 8.32276 11.525 8.31259C11.501 8.30243 11.4753 8.29708 11.4492 8.29688" stroke="#666F8D" stroke-width="1.4" stroke-linecap="round" stroke-linejoin="round"/>
<path d="M8.00204 1.29761C6.69227 1.29805 5.40733 1.65508 4.28509 2.3304C3.16284 3.00573 2.24564 3.97385 1.63187 5.13091C1.02013 6.28766 0.736283 7.58966 0.81104 8.89607C0.885797 10.2025 1.31631 11.4636 2.05602 12.543L0.79959 15.7025L4.16073 14.5693C5.10535 15.1618 6.17451 15.5273 7.28419 15.6369C8.39387 15.7465 9.51385 15.5973 10.5561 15.201C11.5984 14.8047 12.5346 14.1721 13.2912 13.353C14.0477 12.5338 14.604 11.5504 14.9164 10.4799C15.2262 9.40976 15.2825 8.28214 15.0808 7.18644C14.8791 6.09075 14.425 5.05708 13.7544 4.16738C13.0835 3.27604 12.2146 2.55282 11.2163 2.05479C10.218 1.55675 9.11766 1.29754 8.00204 1.29761Z" stroke="#666F8D" stroke-width="1.4" stroke-linecap="round" stroke-linejoin="round"/>
</svg>
