<svg width="14" height="14" viewBox="0 0 14 14" fill="none" xmlns="http://www.w3.org/2000/svg">
<path d="M5.80649 12.1174L1.05939 12.9726L1.85057 8.15915L8.54591 1.49582C8.69303 1.34738 8.86809 1.22956 9.061 1.14915C9.2539 1.06874 9.46082 1.02734 9.66981 1.02734C9.8788 1.02734 10.0857 1.06874 10.2786 1.14915C10.4715 1.22956 10.6466 1.34738 10.7937 1.49582L12.4721 3.17423C12.6205 3.32135 12.7384 3.49641 12.8188 3.68931C12.8992 3.88221 12.9406 4.08913 12.9406 4.29812C12.9406 4.50711 12.8992 4.71403 12.8188 4.90694C12.7384 5.09984 12.6205 5.2749 12.4721 5.42202L5.80878 12.1174H5.80649Z" stroke="#666F8D" stroke-width="1.3" stroke-linecap="round" stroke-linejoin="round"/>
</svg>
