<svg width="16" height="16" viewBox="0 0 16 16" fill="none" xmlns="http://www.w3.org/2000/svg">
<path d="M1.2002 11.7517L3.77593 8.4752C4.50631 7.54609 5.90348 7.5157 6.67359 8.41217L8.93813 11.0482M6.98254 8.77187C7.95536 7.53446 9.31077 5.78132 9.39903 5.66726C9.40212 5.66318 9.40512 5.65933 9.40831 5.65528C10.1401 4.73218 11.5327 4.70388 12.3012 5.59835L14.5657 8.23443M3.07606 14.8H12.9243C13.9604 14.8 14.8002 13.9601 14.8002 12.9241V3.07581C14.8002 2.0398 13.9604 1.19995 12.9243 1.19995H3.07606C2.04005 1.19995 1.2002 2.0398 1.2002 3.07581V12.9241C1.2002 13.9601 2.04005 14.8 3.07606 14.8Z" stroke="#666F8D" stroke-width="1.3" stroke-linecap="round" stroke-linejoin="round"/>
</svg>
