<svg width="21" height="20" viewBox="0 0 21 20" fill="none" xmlns="http://www.w3.org/2000/svg">
<path fill-rule="evenodd" clip-rule="evenodd" d="M19.2119 9.89993V2.72393H12.0399V9.89993H16.1399C16.1399 10.4385 16.0338 10.9718 15.8276 11.4694C15.6215 11.967 15.3193 12.419 14.9383 12.7998C14.5574 13.1805 14.1052 13.4825 13.6075 13.6884C13.1099 13.8943 12.5765 14.0002 12.0379 13.9999V17.0759C12.9802 17.0759 13.9132 16.8903 14.7837 16.5296C15.6543 16.169 16.4452 15.6404 17.1114 14.974C17.7776 14.3076 18.306 13.5165 18.6664 12.6459C19.0268 11.7753 19.2122 10.8422 19.2119 9.89993ZM1.78791 13.9999V17.0759C3.69041 17.0749 5.51463 16.3184 6.85953 14.9727C8.20442 13.6271 8.95991 11.8024 8.95991 9.89993V2.72393H1.78591V9.89993H5.88591C5.88591 10.987 5.45422 12.0295 4.68576 12.7984C3.91729 13.5672 2.87495 13.9994 1.78791 13.9999Z" fill="#CBD5E1"/>
</svg>
