<svg width="12" height="14" viewBox="0 0 12 14" fill="none" xmlns="http://www.w3.org/2000/svg">
<path d="M1.11768 2.15818C1.15925 1.59534 1.49343 1.1188 2.04241 0.989353C2.75202 0.821792 3.98353 0.642578 5.99993 0.642578C8.01633 0.642578 9.24783 0.822107 9.95745 0.989038C10.5064 1.1188 10.8406 1.59534 10.8822 2.15818C10.9515 3.09394 11.0393 4.8212 11.0393 7.57178C11.0393 9.75951 11.0072 11.1894 10.9666 12.1233C10.9234 13.1145 10.1562 13.4493 9.32689 12.9044L7.03679 11.402C6.72876 11.1999 6.36836 11.0922 5.99993 11.0922C5.63149 11.0922 5.27109 11.1999 4.96307 11.402L2.67328 12.9044C1.84367 13.4493 1.07642 13.1145 1.03327 12.1233C0.992322 11.1894 0.96051 9.75951 0.96051 7.57178C0.96051 4.8212 1.04807 3.09394 1.11768 2.15818Z" stroke="#666F8D" stroke-width="1.3" stroke-linecap="round" stroke-linejoin="round"/>
</svg>
