<svg width="20" height="20" viewBox="0 0 20 20" fill="none" xmlns="http://www.w3.org/2000/svg">
<path d="M17.9424 17.0577L14.0306 13.1468C15.1644 11.7856 15.7298 10.0398 15.6091 8.27238C15.4884 6.50499 14.691 4.85217 13.3828 3.65772C12.0745 2.46328 10.3561 1.8192 8.5851 1.85944C6.81406 1.89969 5.12671 2.62118 3.87407 3.87383C2.62143 5.12647 1.89994 6.81382 1.85969 8.58486C1.81944 10.3559 2.46353 12.0743 3.65797 13.3825C4.85241 14.6908 6.50524 15.4882 8.27263 15.6089C10.04 15.7295 11.7859 15.1642 13.1471 14.0304L17.058 17.9421C17.1161 18.0002 17.185 18.0463 17.2609 18.0777C17.3367 18.1091 17.4181 18.1253 17.5002 18.1253C17.5823 18.1253 17.6636 18.1091 17.7395 18.0777C17.8154 18.0463 17.8843 18.0002 17.9424 17.9421C18.0004 17.8841 18.0465 17.8151 18.0779 17.7392C18.1094 17.6634 18.1255 17.5821 18.1255 17.4999C18.1255 17.4178 18.1094 17.3365 18.0779 17.2606C18.0465 17.1848 18.0004 17.1158 17.9424 17.0577ZM3.12518 8.74993C3.12518 7.63741 3.45508 6.54988 4.07316 5.62485C4.69124 4.69982 5.56975 3.97885 6.59758 3.55311C7.62542 3.12737 8.75642 3.01598 9.84756 3.23302C10.9387 3.45006 11.941 3.98579 12.7277 4.77246C13.5143 5.55913 14.0501 6.56141 14.2671 7.65255C14.4841 8.74369 14.3727 9.87469 13.947 10.9025C13.5213 11.9304 12.8003 12.8089 11.8753 13.427C10.9502 14.045 9.8627 14.3749 8.75018 14.3749C7.25884 14.3733 5.82906 13.7801 4.77453 12.7256C3.72 11.6711 3.12683 10.2413 3.12518 8.74993Z" fill="#343330"/>
</svg>
