<svg width="16" height="17" viewBox="0 0 16 17" fill="none" xmlns="http://www.w3.org/2000/svg">
<path d="M5.98245 3.08032L6.47695 1.8078C6.56088 1.59316 6.70785 1.40897 6.89852 1.2795C7.08919 1.15004 7.31461 1.08136 7.54507 1.08253H8.47144C8.70106 1.08236 8.92539 1.1515 9.11508 1.2809C9.30477 1.4103 9.45099 1.59394 9.53461 1.8078L10.0291 3.08032L11.6774 4.03635L13.0291 3.83196C13.2551 3.7986 13.4859 3.83387 13.6916 3.9332C13.8973 4.03254 14.0685 4.19136 14.1829 4.38909L14.6477 5.19348C14.7622 5.39229 14.8141 5.62094 14.7967 5.84967C14.7794 6.0784 14.6936 6.2966 14.5505 6.47588L13.6983 7.544V9.45607L14.5505 10.5242C14.6936 10.7035 14.7794 10.9217 14.7967 11.1504C14.8141 11.3791 14.7622 11.6078 14.6477 11.8066L14.1829 12.611C14.0685 12.8087 13.8973 12.9675 13.6916 13.0669C13.4859 13.1662 13.2551 13.2015 13.0291 13.1681L11.6774 12.9637L10.0291 13.9198L9.53461 15.1923C9.45099 15.4061 9.30477 15.5898 9.11508 15.7192C8.92539 15.8486 8.70106 15.9177 8.47144 15.9175H7.54507C7.31545 15.9177 7.09112 15.8486 6.90143 15.7192C6.71174 15.5898 6.56552 15.4061 6.4819 15.1923L5.9874 13.9198L4.33906 12.9637L2.98743 13.1681C2.76143 13.2015 2.53061 13.1662 2.32489 13.0669C2.11917 12.9675 1.94801 12.8087 1.83359 12.611L1.35228 11.8066C1.23786 11.6078 1.18594 11.3791 1.20328 11.1504C1.22063 10.9217 1.30644 10.7035 1.44953 10.5242L2.30172 9.45607V7.544L1.44953 6.47588C1.30644 6.2966 1.22063 6.0784 1.20328 5.84967C1.18594 5.62094 1.23786 5.39229 1.35228 5.19348L1.81711 4.38909C1.93153 4.19136 2.10268 4.03254 2.30841 3.9332C2.51413 3.83387 2.74494 3.7986 2.97094 3.83196L4.32258 4.03635L5.98245 3.08032ZM5.94784 8.50004C5.94784 9.04649 6.16492 9.57057 6.55132 9.95697C6.93772 10.3434 7.4618 10.5605 8.00825 10.5605C8.55471 10.5605 9.07879 10.3434 9.46519 9.95697C9.85159 9.57057 10.0687 9.04649 10.0687 8.50004C10.0687 7.95358 9.85159 7.42951 9.46519 7.0431C9.07879 6.6567 8.55471 6.43962 8.00825 6.43962C7.4618 6.43962 6.93772 6.6567 6.55132 7.0431C6.16492 7.42951 5.94784 7.95358 5.94784 8.50004Z" stroke="#666F8D" stroke-width="1.3" stroke-linecap="round"/>
</svg>
