<svg width="24" height="24" viewBox="0 0 24 24" fill="none" xmlns="http://www.w3.org/2000/svg">
<path d="M8 14C9.10457 14 10 13.1046 10 12C10 10.8954 9.10457 10 8 10C6.89543 10 6 10.8954 6 12C6 13.1046 6.89543 14 8 14Z" stroke="#687076" stroke-width="1.3" stroke-linecap="round" stroke-linejoin="round"/>
<path d="M15 18.5C16.1046 18.5 17 17.6046 17 16.5C17 15.3954 16.1046 14.5 15 14.5C13.8954 14.5 13 15.3954 13 16.5C13 17.6046 13.8954 18.5 15 18.5Z" stroke="#687076" stroke-width="1.3" stroke-linecap="round" stroke-linejoin="round"/>
<path d="M15 9.5C16.1046 9.5 17 8.60457 17 7.5C17 6.39543 16.1046 5.5 15 5.5C13.8954 5.5 13 6.39543 13 7.5C13 8.60457 13.8954 9.5 15 9.5Z" stroke="#687076" stroke-width="1.3" stroke-linecap="round" stroke-linejoin="round"/>
<path d="M13.3187 8.58105L9.68115 10.9186" stroke="#687076" stroke-width="1.3" stroke-linecap="round" stroke-linejoin="round"/>
<path d="M9.68115 13.0811L13.3187 15.4186" stroke="#687076" stroke-width="1.3" stroke-linecap="round" stroke-linejoin="round"/>
</svg>
