<svg width="14" height="13" viewBox="0 0 14 13" fill="none" xmlns="http://www.w3.org/2000/svg">
<path d="M7 0C5.71442 0 4.45772 0.381218 3.3888 1.09545C2.31988 1.80968 1.48676 2.82484 0.994786 4.01256C0.502816 5.20028 0.374095 6.50721 0.624899 7.76809C0.875703 9.02896 1.49477 10.1872 2.40381 11.0962C3.31285 12.0052 4.47104 12.6243 5.73192 12.8751C6.99279 13.1259 8.29973 12.9972 9.48744 12.5052C10.6752 12.0132 11.6903 11.1801 12.4046 10.1112C13.1188 9.04229 13.5 7.78558 13.5 6.5C13.4982 4.77665 12.8128 3.12441 11.5942 1.90582C10.3756 0.687224 8.72335 0.00181989 7 0ZM9.85375 5.35375L6.35375 8.85375C6.30732 8.90024 6.25217 8.93712 6.19147 8.96228C6.13077 8.98744 6.06571 9.00039 6 9.00039C5.9343 9.00039 5.86923 8.98744 5.80853 8.96228C5.74783 8.93712 5.69269 8.90024 5.64625 8.85375L4.14625 7.35375C4.05243 7.25993 3.99972 7.13268 3.99972 7C3.99972 6.86732 4.05243 6.74007 4.14625 6.64625C4.24007 6.55243 4.36732 6.49972 4.5 6.49972C4.63268 6.49972 4.75993 6.55243 4.85375 6.64625L6 7.79313L9.14625 4.64625C9.19271 4.59979 9.24786 4.56294 9.30855 4.5378C9.36925 4.51266 9.43431 4.49972 9.5 4.49972C9.5657 4.49972 9.63075 4.51266 9.69145 4.5378C9.75215 4.56294 9.8073 4.59979 9.85375 4.64625C9.90021 4.6927 9.93706 4.74786 9.9622 4.80855C9.98734 4.86925 10.0003 4.9343 10.0003 5C10.0003 5.0657 9.98734 5.13075 9.9622 5.19145C9.93706 5.25214 9.90021 5.3073 9.85375 5.35375Z" fill="#00A755"/>
</svg>
