<svg width="16" height="17" viewBox="0 0 16 17" fill="none" xmlns="http://www.w3.org/2000/svg">
<path d="M14.5 6.5C14.5003 6.45351 14.4939 6.40722 14.4812 6.3625L13.5844 3.225C13.5241 3.01682 13.3981 2.83373 13.2252 2.70306C13.0523 2.57239 12.8417 2.50116 12.625 2.5H3.375C3.15827 2.50116 2.94773 2.57239 2.77482 2.70306C2.60191 2.83373 2.47591 3.01682 2.41563 3.225L1.51938 6.3625C1.50646 6.40719 1.49994 6.45348 1.5 6.5V7.5C1.5 7.88811 1.59036 8.2709 1.76393 8.61803C1.9375 8.96517 2.18951 9.26713 2.5 9.5V13.5C2.5 13.7652 2.60536 14.0196 2.79289 14.2071C2.98043 14.3946 3.23478 14.5 3.5 14.5H12.5C12.7652 14.5 13.0196 14.3946 13.2071 14.2071C13.3946 14.0196 13.5 13.7652 13.5 13.5V9.5C13.8105 9.26713 14.0625 8.96517 14.2361 8.61803C14.4096 8.2709 14.5 7.88811 14.5 7.5V6.5ZM3.375 3.5H12.625L13.3387 6H2.66313L3.375 3.5ZM6.5 7H9.5V7.5C9.5 7.89782 9.34197 8.27936 9.06066 8.56066C8.77936 8.84196 8.39783 9 8 9C7.60218 9 7.22064 8.84196 6.93934 8.56066C6.65804 8.27936 6.5 7.89782 6.5 7.5V7ZM5.5 7V7.5C5.5 7.89782 5.34197 8.27936 5.06066 8.56066C4.77936 8.84196 4.39783 9 4 9C3.60218 9 3.22064 8.84196 2.93934 8.56066C2.65804 8.27936 2.5 7.89782 2.5 7.5V7H5.5ZM12.5 13.5H3.5V9.95C3.6646 9.98318 3.83209 9.99993 4 10C4.38811 10 4.7709 9.90964 5.11803 9.73607C5.46517 9.5625 5.76713 9.31049 6 9C6.23287 9.31049 6.53483 9.5625 6.88197 9.73607C7.22911 9.90964 7.61189 10 8 10C8.38811 10 8.7709 9.90964 9.11803 9.73607C9.46517 9.5625 9.76713 9.31049 10 9C10.2329 9.31049 10.5348 9.5625 10.882 9.73607C11.2291 9.90964 11.6119 10 12 10C12.1679 9.99993 12.3354 9.98318 12.5 9.95V13.5ZM12 9C11.6022 9 11.2206 8.84196 10.9393 8.56066C10.658 8.27936 10.5 7.89782 10.5 7.5V7H13.5V7.5C13.5 7.89782 13.342 8.27936 13.0607 8.56066C12.7794 8.84196 12.3978 9 12 9Z" fill="#343330"/>
</svg>
