<svg width="18" height="18" viewBox="0 0 18 18" fill="none" xmlns="http://www.w3.org/2000/svg">
<path d="M17.5445 0.455531C17.1458 0.056838 16.5651 -0.0810821 16.032 0.0904487L1.05433 4.9049C0.485262 5.08802 0.0912048 5.57016 0.0263012 6.16473C-0.0386023 6.75813 0.243033 7.31445 0.758784 7.61463L6.06233 10.708L10.6438 6.12532C10.9834 5.78574 11.5339 5.78574 11.8735 6.12532C12.2131 6.46491 12.2131 7.01543 11.8735 7.35501L7.29087 11.9377L10.3842 17.2412C10.6566 17.7071 11.1376 17.9818 11.6672 17.9818C11.7229 17.9818 11.7796 17.9783 11.8364 17.9725C12.4298 17.9076 12.9131 17.5136 13.0951 16.9457L17.9107 1.96918C18.0822 1.43256 17.942 0.853066 17.5445 0.455531Z" fill="white"/>
</svg>
