<svg width="16" height="17" viewBox="0 0 16 17" fill="none" xmlns="http://www.w3.org/2000/svg">
<path d="M0.998444 4.38834H15.0005M5.047 4.38177V4.00454C5.047 3.2308 5.35436 2.48875 5.90148 1.94164C6.44859 1.39452 7.19064 1.08716 7.96438 1.08716C8.73811 1.08716 9.48016 1.39452 10.0273 1.94164C10.5744 2.48875 10.8818 3.2308 10.8818 4.00454V4.38177M11.7102 15.9128H4.29735C3.86045 15.9128 3.44145 15.7392 3.13252 15.4303C2.82359 15.1214 2.65004 14.7024 2.65004 14.2655V4.38164H13.3575V14.2655C13.3575 14.7024 13.184 15.1214 12.875 15.4303C12.5661 15.7392 12.1471 15.9128 11.7102 15.9128Z" stroke="#666F8D" stroke-width="1.3" stroke-linecap="round" stroke-linejoin="round"/>
</svg>
